Run_30001
nRows=4
nColumns=164

# SIMM Motion File Header:
name Run_30001
datacolumns 164
datarows 4
otherdata 1
range 1.42500000 1.45000000
endheader
time	pelvis_tilt	pelvis_list	pelvis_rotation	pelvis_tx	pelvis_ty	pelvis_tz	hip_flexion_r	hip_adduction_r	hip_rotation_r	knee_angle_r	ankle_angle_r	hip_flexion_l	hip_adduction_l	hip_rotation_l	knee_angle_l	ankle_angle_l	lumbar_extension	lumbar_bending	lumbar_rotation	arm_flex_r	arm_add_r	arm_rot_r	elbow_flex_r	pro_sup_r	arm_flex_l	arm_add_l	arm_rot_l	elbow_flex_l	pro_sup_l	subtalar_angle_r	mtp_angle_r	subtalar_angle_l	mtp_angle_l	wrist_flex_r	wrist_dev_r	wrist_flex_l	wrist_dev_l	LASI_tx	LASI_ty	LASI_tz	RASI_tx	RASI_ty	RASI_tz	LPSI_tx	LPSI_ty	LPSI_tz	RPSI_tx	RPSI_ty	RPSI_tz	RTH1_tx	RTH1_ty	RTH1_tz	RTH2_tx	RTH2_ty	RTH2_tz	RTH3_tx	RTH3_ty	RTH3_tz	LTH1_tx	LTH1_ty	LTH1_tz	LTH2_tx	LTH2_ty	LTH2_tz	LTH3_tx	LTH3_ty	LTH3_tz	RTB1_tx	RTB1_ty	RTB1_tz	RTB2_tx	RTB2_ty	RTB2_tz	RTB3_tx	RTB3_ty	RTB3_tz	LTB1_tx	LTB1_ty	LTB1_tz	LTB2_tx	LTB2_ty	LTB2_tz	LTB3_tx	LTB3_ty	LTB3_tz	RCAL_tx	RCAL_ty	RCAL_tz	RTOE_tx	RTOE_ty	RTOE_tz	RMT5_tx	RMT5_ty	RMT5_tz	LCAL_tx	LCAL_ty	LCAL_tz	LTOE_tx	LTOE_ty	LTOE_tz	LMT5_tx	LMT5_ty	LMT5_tz	LACR_tx	LACR_ty	LACR_tz	RACR_tx	RACR_ty	RACR_tz	CLAV_tx	CLAV_ty	CLAV_tz	C7_tx	C7_ty	C7_tz	RUA1_tx	RUA1_ty	RUA1_tz	RUA2_tx	RUA2_ty	RUA2_tz	RUA3_tx	RUA3_ty	RUA3_tz	RLEL_tx	RLEL_ty	RLEL_tz	RMEL_tx	RMEL_ty	RMEL_tz	LUA1_tx	LUA1_ty	LUA1_tz	LUA2_tx	LUA2_ty	LUA2_tz	LUA3_tx	LUA3_ty	LUA3_tz	LLEL_tx	LLEL_ty	LLEL_tz	LMEL_tx	LMEL_ty	LMEL_tz	RFAsuperior_tx	RFAsuperior_ty	RFAsuperior_tz	RFAradius_tx	RFAradius_ty	RFAradius_tz	RFAulna_tx	RFAulna_ty	RFAulna_tz	LFAsuperior_tx	LFAsuperior_ty	LFAsuperior_tz	LFAradius_tx	LFAradius_ty	LFAradius_tz	LFAulna_tx	LFAulna_ty	LFAulna_tz
      1.42500000	     -3.81972709	      1.54600568	      1.80693111	      1.07103633	      0.96971482	     -0.32340848	     43.57640589	     -0.12805273	     -1.37657562	    -95.80591610	     -1.62116741	      4.85058012	      7.20902039	      3.49684361	    -36.02575713	     13.43153680	     -9.37677224	     -4.10366593	    -10.80497788	    -37.57477537	     -7.89871108	    -11.21703830	     67.25859764	     67.36014399	    -20.03935046	    -19.34722653	      0.83312551	    128.15020260	     82.66754507	      0.00000000	      0.00000000	      0.00000000	      0.00000000	      0.00000000	      0.00000000	      0.00000000	      0.00000000	      1.07720819	      0.97841543	     -0.43494876	      1.07774821	      0.98074385	     -0.19866731	      0.91106753	      1.01999501	     -0.36690663	      0.91127541	      1.01805861	     -0.27029354	      1.06467682	      0.82743953	     -0.14605163	      1.21383101	      0.74974050	     -0.17167833	      1.21054056	      0.64652715	     -0.17934181	      1.00055828	      0.81087295	     -0.49250150	      1.06952064	      0.70727349	     -0.47690042	      0.98892327	      0.58502816	     -0.45087743	      1.20984138	      0.45517530	     -0.24277642	      1.12776636	      0.46458005	     -0.18815520	      1.05561504	      0.35959693	     -0.24558103	      0.98131657	      0.34613520	     -0.38400213	      0.89055513	      0.28781290	     -0.42388722	      0.85683963	      0.19937154	     -0.35427056	      0.86744902	      0.36147473	     -0.28429707	      0.99255055	      0.19193444	     -0.27388752	      0.94849593	      0.19223012	     -0.17331486	      0.68287317	      0.13826995	     -0.34378999	      0.87705757	      0.07521875	     -0.30105570	      0.86035493	      0.04073657	     -0.40823700	      1.09823234	      1.45000592	     -0.52557110	      1.05848979	      1.45942431	     -0.15870144	      1.14553525	      1.40506450	     -0.30644154	      1.03926758	      1.49419601	     -0.35508772	      1.00472331	      1.39328441	     -0.11788775	      0.97993846	      1.31042196	     -0.12683581	      0.89886728	      1.33817516	     -0.13892832	      0.82817011	      1.24906981	     -0.11389742	      0.83260093	      1.23993394	     -0.18046933	      1.07079822	      1.36804291	     -0.57512014	      1.00163111	      1.32007972	     -0.56127155	      1.05733669	      1.26434997	     -0.59308516	      0.98795980	      1.16628278	     -0.62457815	      0.94218473	      1.16530819	     -0.56305661	      0.87924809	      1.17426660	     -0.07957207	      0.94247129	      1.00370037	     -0.07545341	      0.87916351	      0.98466859	     -0.09394265	      1.06980894	      1.17134404	     -0.59835665	      1.20718942	      1.20253368	     -0.47238610	      1.21289359	      1.13573945	     -0.47355146
      1.43333300	     -4.01961438	      0.56526545	      1.48549578	      1.07279195	      0.97669223	     -0.32354022	     44.15737006	      0.73726116	     -1.87294328	    -91.52023484	     -1.64029344	      2.49102455	      6.08331474	      3.86714034	    -33.79837110	     10.42062377	     -8.84397044	     -2.85362866	    -11.29786270	    -38.62226606	     -8.11556458	    -12.05997275	     68.11278485	     67.80065100	    -19.96257615	    -19.17034705	      1.15168834	    130.00248769	     83.05006942	      0.00000000	      0.00000000	      0.00000000	      0.00000000	      0.00000000	      0.00000000	      0.00000000	      0.00000000	      1.07928944	      0.98327122	     -0.43521653	      1.07861040	      0.98877762	     -0.19933905	      0.91328141	      1.02668969	     -0.36859049	      0.91198974	      1.02560214	     -0.27177322	      1.06754353	      0.83730500	     -0.14462655	      1.21658622	      0.76021394	     -0.17128531	      1.21390100	      0.65698010	     -0.17910076	      0.99712030	      0.81630390	     -0.49181037	      1.06302664	      0.71075769	     -0.47468870	      0.97713790	      0.59185926	     -0.45042232	      1.22244465	      0.46092097	     -0.24237593	      1.13906127	      0.46368556	     -0.18825573	      1.07610664	      0.35276432	     -0.24578450	      0.96276804	      0.35251950	     -0.38358624	      0.87209831	      0.29496963	     -0.42475526	      0.83752526	      0.20609954	     -0.35541140	      0.88934480	      0.33874843	     -0.28664275	      1.02769727	      0.18032671	     -0.27357944	      0.98221552	      0.17727415	     -0.17362080	      0.66375265	      0.14852487	     -0.34542117	      0.85383777	      0.07578935	     -0.30152807	      0.83539000	      0.04116333	     -0.40830315	      1.10112412	      1.45863699	     -0.52388572	      1.05531946	      1.46724635	     -0.15891536	      1.14501896	      1.41312249	     -0.30434235	      1.03974680	      1.50142512	     -0.35479065	      1.00058271	      1.40261482	     -0.11865406	      0.97560001	      1.31940719	     -0.12797629	      0.89491021	      1.34794413	     -0.14164410	      0.82265385	      1.25993385	     -0.11810074	      0.82877962	      1.25009522	     -0.18453869	      1.07505247	      1.37696109	     -0.57426916	      1.00637171	      1.32878151	     -0.56230611	      1.06319728	      1.27293418	     -0.59241985	      0.99481806	      1.17395436	     -0.62483645	      0.94770951	      1.17333843	     -0.56439603	      0.87292920	      1.18559941	     -0.08192794	      0.93583891	      1.01464480	     -0.07501840	      0.87312680	      0.99541110	     -0.09409259	      1.07599815	      1.18152533	     -0.59734014	      1.20896778	      1.21969718	     -0.46851480	      1.21728960	      1.15314781	     -0.46856561
      1.44166700	     -4.20325245	     -0.44984744	      1.06292386	      1.07500053	      0.98399576	     -0.32353563	     44.40578160	      1.71070629	     -2.34150597	    -86.82492649	     -1.77312283	      0.17429224	      4.90070004	      3.99984410	    -31.55041280	      6.80500917	     -8.28790332	     -1.57773334	    -11.58269361	    -39.70566704	     -8.37935984	    -12.80429175	     68.94203548	     68.36363506	    -20.03956496	    -18.97203262	      1.55711188	    131.74762572	     83.49106401	      0.00000000	      0.00000000	      0.00000000	      0.00000000	      0.00000000	      0.00000000	      0.00000000	      0.00000000	      1.08186113	      0.98850243	     -0.43527297	      1.07958964	      0.99716418	     -0.19996514	      0.91598292	      1.03380824	     -0.37051494	      0.91332123	      1.03339816	     -0.27353094	      1.07056922	      0.84793989	     -0.14313971	      1.21865672	      0.76964947	     -0.17107067	      1.21568598	      0.66660148	     -0.17912248	      0.99445232	      0.82245195	     -0.49128780	      1.05749998	      0.71494452	     -0.47227454	      0.96631101	      0.59960139	     -0.45031361	      1.23389996	      0.46603069	     -0.24172236	      1.14981177	      0.46198539	     -0.18823075	      1.09693720	      0.34575396	     -0.24611214	      0.94517300	      0.36001995	     -0.38330716	      0.85483277	      0.30294288	     -0.42594174	      0.81966945	      0.21358720	     -0.35681290	      0.91285911	      0.31642872	     -0.28862795	      1.06349865	      0.16981523	     -0.27360945	      1.01699798	      0.16296087	     -0.17423980	      0.64636004	      0.15980974	     -0.34696302	      0.83114893	      0.07604553	     -0.30187675	      0.81075164	      0.04171562	     -0.40839334	      1.10390117	      1.46747100	     -0.52217620	      1.05252727	      1.47526884	     -0.15915085	      1.14453910	      1.42150676	     -0.30236333	      1.04027427	      1.50894662	     -0.35439557	      0.99701904	      1.41192497	     -0.11935259	      0.97184397	      1.32840054	     -0.12925048	      0.89155805	      1.35788339	     -0.14399819	      0.81789152	      1.27091678	     -0.12187131	      0.82521828	      1.26059901	     -0.18819302	      1.07898486	      1.38617270	     -0.57331267	      1.01049385	      1.33791298	     -0.56315348	      1.06841663	      1.28196596	     -0.59175325	      1.00074430	      1.18231312	     -0.62508719	      0.95239541	      1.18195276	     -0.56575213	      0.86749448	      1.19695371	     -0.08426136	      0.92999256	      1.02562632	     -0.07498853	      0.86744494	      1.00635141	     -0.09430839	      1.08123664	      1.19207702	     -0.59649979	      1.20971917	      1.23650521	     -0.46504498	      1.22035541	      1.17025332	     -0.46397323
      1.45000000	     -4.38156335	     -1.51774385	      0.53237229	      1.07754285	      0.99144179	     -0.32333305	     44.35296169	      2.83968469	     -2.75156922	    -81.74357119	     -2.11760801	     -2.04423560	      3.64368427	      3.82529102	    -29.37108654	      2.66057258	     -7.71984170	     -0.25231779	    -11.65909166	    -40.82223390	     -8.66526372	    -13.47498195	     69.78308808	     68.92251732	    -20.24996173	    -18.76063576	      2.04008888	    133.37115691	     83.98409388	      0.00000000	      0.00000000	      0.00000000	      0.00000000	      0.00000000	      0.00000000	      0.00000000	      0.00000000	      1.08482273	      0.99392428	     -0.43509161	      1.08058238	      1.00582956	     -0.20045540	      0.91904684	      1.04114820	     -0.37259220	      0.91521176	      1.04129282	     -0.27548941	      1.07359945	      0.85906039	     -0.14165170	      1.21982177	      0.77791248	     -0.17100526	      1.21587849	      0.67516393	     -0.17942288	      0.99282488	      0.82902760	     -0.49094096	      1.05271728	      0.71957747	     -0.46985331	      0.95648917	      0.60787277	     -0.45061734	      1.24426303	      0.47052423	     -0.24094914	      1.16026205	      0.45958838	     -0.18788969	      1.11802639	      0.33881117	     -0.24635707	      0.92877816	      0.36825686	     -0.38366163	      0.83874415	      0.31153306	     -0.42747670	      0.80341506	      0.22155239	     -0.35857830	      0.93777184	      0.29493141	     -0.28998118	      1.09960463	      0.16048348	     -0.27425930	      1.05282999	      0.14938617	     -0.17537620	      0.63085347	      0.17200914	     -0.34846105	      0.80889849	      0.07614807	     -0.30212053	      0.78644174	      0.04250380	     -0.40851644	      1.10661200	      1.47634683	     -0.52047838	      1.05014740	      1.48329161	     -0.15929739	      1.14410185	      1.42996005	     -0.30047054	      1.04081563	      1.51650731	     -0.35387389	      0.99395674	      1.42112265	     -0.11997122	      0.96856703	      1.33737902	     -0.13046345	      0.88873039	      1.36782791	     -0.14605949	      0.81378396	      1.28181972	     -0.12524551	      0.82192015	      1.27137047	     -0.19154664	      1.08266222	      1.39547128	     -0.57231560	      1.01402170	      1.34732043	     -0.56379099	      1.07298000	      1.29127183	     -0.59119016	      1.00582476	      1.19116131	     -0.62539552	      0.95621754	      1.19095891	     -0.56709360	      0.86276872	      1.20814896	     -0.08649624	      0.92491545	      1.03647008	     -0.07526663	      0.86231825	      1.01725091	     -0.09468595	      1.08563955	      1.20280728	     -0.59585680	      1.20965150	      1.25269303	     -0.46192537	      1.22231798	      1.18678221	     -0.45975613
